<?xml version="1.0" encoding="UTF-8" standalone="no"?>
<!-- Generator: Adobe Illustrator 24.1.2, SVG Export Plug-In . SVG Version: 6.00 Build 0)  -->

<svg
   xmlns:dc="http://purl.org/dc/elements/1.1/"
   xmlns:cc="http://creativecommons.org/ns#"
   xmlns:rdf="http://www.w3.org/1999/02/22-rdf-syntax-ns#"
   xmlns:svg="http://www.w3.org/2000/svg"
   xmlns="http://www.w3.org/2000/svg"
   xmlns:sodipodi="http://sodipodi.sourceforge.net/DTD/sodipodi-0.dtd"
   xmlns:inkscape="http://www.inkscape.org/namespaces/inkscape"
   version="1.1"
   id="Layer_1"
   x="0px"
   y="0px"
   viewBox="0 0 700 700.00001"
   xml:space="preserve"
   sodipodi:docname="mobil-logo.svg"
   width="700"
   height="700"
   inkscape:export-filename="G:\Users\suitedoalex\sites\mobil-logo-0.png"
   inkscape:export-xdpi="561.73712"
   inkscape:export-ydpi="561.73712"
   inkscape:version="0.92.4 (5da689c313, 2019-01-14)"><metadata
   id="metadata63"><rdf:RDF><cc:Work
       rdf:about=""><dc:format>image/svg+xml</dc:format><dc:type
         rdf:resource="http://purl.org/dc/dcmitype/StillImage" /><dc:title></dc:title></cc:Work></rdf:RDF></metadata><defs
   id="defs61" /><sodipodi:namedview
   pagecolor="#ffffff"
   bordercolor="#666666"
   borderopacity="1"
   objecttolerance="10"
   gridtolerance="10"
   guidetolerance="10"
   inkscape:pageopacity="0"
   inkscape:pageshadow="2"
   inkscape:window-width="1600"
   inkscape:window-height="837"
   id="namedview59"
   showgrid="false"
   inkscape:zoom="0.63148039"
   inkscape:cx="179.43873"
   inkscape:cy="444.06555"
   inkscape:window-x="-8"
   inkscape:window-y="-8"
   inkscape:window-maximized="1"
   inkscape:current-layer="Layer_1" />
<style
   type="text/css"
   id="style2">
	.st0{fill:#0C479D;}
	.st1{fill:#FE000C;}
	.st2{fill:#5A5A5A;}
</style>
<polygon
   class="st0"
   points="21.12,26.31 21.12,7.71 21.05,7.71 15.79,26.31 10.75,26.31 5.56,7.71 5.48,7.71 5.48,26.31 0,26.31 0,0 8.52,0 13.34,16.16 13.41,16.16 18.31,0 26.61,0 26.61,26.31 "
   id="polygon4"
   style="fill:#0c479d"
   transform="matrix(5.7033938,0,0,5.7033938,78.432904,273.34638)"
   inkscape:export-filename="G:\Users\suitedoalex\sites\mobil-logo-4.png"
   inkscape:export-xdpi="70.700768"
   inkscape:export-ydpi="70.700768" />
<rect
   x="500.99731"
   class="st0"
   width="31.254599"
   height="29.600615"
   id="rect6"
   y="273.3465"
   style="fill:#0c479d;stroke-width:5.70339394"
   inkscape:export-filename="G:\Users\suitedoalex\sites\mobil-logo-4.png"
   inkscape:export-xdpi="70.700768"
   inkscape:export-ydpi="70.700768" />
<rect
   x="500.99731"
   y="313.49823"
   class="st0"
   width="31.254599"
   height="109.9044"
   id="rect8"
   style="fill:#0c479d;stroke-width:5.70339394"
   inkscape:export-filename="G:\Users\suitedoalex\sites\mobil-logo-4.png"
   inkscape:export-xdpi="70.700768"
   inkscape:export-ydpi="70.700768" />
<rect
   x="549.59027"
   class="st0"
   width="31.254599"
   height="150.05629"
   id="rect10"
   y="273.3465"
   style="fill:#0c479d;stroke-width:5.70339394"
   inkscape:export-filename="G:\Users\suitedoalex\sites\mobil-logo-4.png"
   inkscape:export-xdpi="70.700768"
   inkscape:export-ydpi="70.700768" />
<path
   class="st1"
   d="m 241.72106,368.479 c 0,-32.1101 26.06451,-58.17461 58.17462,-58.17461 32.11011,0 58.17462,26.06451 58.17462,58.17461 0,32.11011 -26.06451,58.17462 -58.17462,58.17462 -32.11011,0 -58.17462,-26.06451 -58.17462,-58.17462 m 58.17462,26.69188 c 14.71476,0 26.69188,-11.9201 26.69188,-26.69189 0,-14.71475 -11.92009,-26.69188 -26.69188,-26.69188 -14.71475,0 -26.69188,11.92009 -26.69188,26.69188 0,14.77179 11.92009,26.69189 26.69188,26.69189"
   id="path12"
   inkscape:connector-curvature="0"
   style="fill:#fe000c;stroke-width:5.70339394"
   inkscape:export-filename="G:\Users\suitedoalex\sites\mobil-logo-4.png"
   inkscape:export-xdpi="70.700768"
   inkscape:export-ydpi="70.700768" />
<path
   class="st0"
   d="m 371.24514,423.40269 v -150.0563 h 31.2546 v 48.59292 c 8.66915,-7.41441 18.59306,-11.00755 29.99985,-11.00755 31.71087,0 55.37995,26.86298 55.37995,57.71835 0,30.85536 -23.89722,57.26207 -55.37995,57.26207 -11.80603,0 -21.95807,-3.365 -29.99985,-12.2623 v 9.69577 h -31.2546 z m 58.28868,-28.2318 c 14.71476,0 26.69189,-11.9201 26.69189,-26.69189 0,-14.71475 -11.9201,-26.69188 -26.69189,-26.69188 -14.71475,0 -26.69188,11.92009 -26.69188,26.69188 0,14.77179 11.92009,26.69189 26.69188,26.69189"
   id="path14"
   inkscape:connector-curvature="0"
   style="fill:#0c479d;stroke-width:5.70339394"
   inkscape:export-filename="G:\Users\suitedoalex\sites\mobil-logo-4.png"
   inkscape:export-xdpi="70.700768"
   inkscape:export-ydpi="70.700768" />
<polygon
   class="st0"
   points="91.58,0.47 91.58,2.63 91.03,2.63 91.03,0.47 90.24,0.47 90.24,0 92.38,0 92.38,0.47 "
   id="polygon16"
   style="fill:#0c479d"
   transform="matrix(5.7033938,0,0,5.7033938,78.432904,273.34638)"
   inkscape:export-filename="G:\Users\suitedoalex\sites\mobil-logo-4.png"
   inkscape:export-xdpi="70.700768"
   inkscape:export-ydpi="70.700768" />
<polygon
   class="st0"
   points="93.19,0.43 93.19,2.63 92.68,2.63 92.68,0 93.48,0 93.96,2.08 93.96,2.08 94.43,0 95.23,0 95.23,2.63 94.72,2.63 94.72,0.43 94.71,0.43 94.22,2.63 93.68,2.63 93.2,0.43 "
   id="polygon18"
   style="fill:#0c479d"
   transform="matrix(5.7033938,0,0,5.7033938,78.432904,273.34638)"
   inkscape:export-filename="G:\Users\suitedoalex\sites\mobil-logo-4.png"
   inkscape:export-xdpi="70.700768"
   inkscape:export-ydpi="70.700768" />







</svg>